<?xml version="1.0" encoding="UTF-8"?>
<svg width="10px" height="10px" viewBox="0 0 10 10" version="1.1" xmlns="http://www.w3.org/2000/svg" xmlns:xlink="http://www.w3.org/1999/xlink">
    <!-- Generator: sketchtool 52.6 (67491) - http://www.bohemiancoding.com/sketch -->
    <title>E18F1D68-17EC-4288-8FF2-454E71882ACE</title>
    <desc>Created with sketchtool.</desc>
    <g id="Page-1" stroke="none" stroke-width="1" fill="none" fill-rule="evenodd" opacity="0.699999988">
        <g id="Dashboard" transform="translate(-130.000000, -128.000000)" fill="#FFFFFF">
            <g id="Header-Tall">
                <g id="icons8-edit" transform="translate(130.000000, 128.000000)">
                    <g id="Shape">
                        <path d="M8.26171875,0 C8.04848958,0 7.83523417,0.0814322917 7.67252583,0.244140625 L6.66666667,1.25 L8.75,3.33333333 L9.75585917,2.32747396 C10.0812758,2.00205729 10.0812758,1.47450521 9.75585917,1.14908854 L8.85091167,0.244140625 C8.68820333,0.0814322917 8.47494792,0 8.26171875,0 Z M5.83333333,2.08333333 L0.941569,6.9750975 C0.941569,6.9750975 1.32397138,6.94083333 1.46647133,7.08333333 C1.60897133,7.22583333 1.49166667,8.15833333 1.66666667,8.33333333 C1.84166667,8.50833333 2.76828775,8.38514958 2.90120442,8.51806625 C3.03412125,8.65098292 3.0249025,9.05843083 3.0249025,9.05843083 L7.91666667,4.16666667 L5.83333333,2.08333333 Z M0.416666667,8.33333333 L0.02360025,9.44661458 C0.00814807989,9.49054831 0.000170764726,9.53676174 0,9.58333333 C0,9.81345198 0.186548021,10 0.416666667,10 C0.463238265,9.99982918 0.509451698,9.99185181 0.553385417,9.97639958 C0.554744594,9.97586422 0.556100946,9.97532171 0.557454417,9.97477208 L0.568033833,9.97151708 C0.568849547,9.97097731 0.569663358,9.97043467 0.57047525,9.96988917 L1.66666667,9.58333333 L1.04166667,8.95833333 L0.416666667,8.33333333 Z" fill-rule="nonzero"></path>
                    </g>
                </g>
            </g>
        </g>
    </g>
</svg>