<?xml version="1.0" encoding="UTF-8"?>
<svg width="24px" height="18px" viewBox="0 0 24 18" version="1.1" xmlns="http://www.w3.org/2000/svg" xmlns:xlink="http://www.w3.org/1999/xlink">
    <!-- Generator: sketchtool 53.2 (72643) - https://sketchapp.com -->
    <title>8084AB8F-529A-4E12-B60E-6B7E3BAFB632</title>
    <desc>Created with sketchtool.</desc>
    <g id="Page-1" stroke="none" stroke-width="1" fill="none" fill-rule="evenodd">
        <g id="Dashboard" transform="translate(-39.000000, -959.000000)" fill="#4D7CFE" fill-rule="nonzero">
            <g id="App/Navigation" transform="translate(0.000000, 945.000000)">
                <g id="Navigation/App-bar---Active-item-01" transform="translate(16.000000, 1.000000)">
                    <g id="icons8-speed" transform="translate(23.000000, 10.000000)">
                        <g transform="translate(0.480000, 3.360000)" id="Shape">
                            <path d="M11.5125001,0.4725 C11.4825001,0.47437488 11.454375,0.47625024 11.424375,0.48375024 C9.4106252,0.500625121 7.52437494,1.05750002 5.90250004,2.01750004 C5.86312516,2.03437492 5.82562516,2.05687492 5.79000004,2.08312517 C4.14187491,3.08625031 2.77875025,4.51312523 1.84500001,6.20812528 C1.82062513,6.24187504 1.80000001,6.27750016 1.78500001,6.31687504 C0.967499998,7.84125045 0.498750233,9.57937514 0.483750233,11.4225003 C0.470625113,11.4862505 0.470625113,11.5500003 0.483750233,11.6118752 C0.498750233,13.6406255 1.005,15.4218753 1.98937489,17.0550005 C2.10375025,17.2443754 2.33437489,17.3306256 2.54625025,17.2631256 C2.75812513,17.1956256 2.8968749,16.9912507 2.88000002,16.7700005 L2.90250002,17.0643753 L4.70437491,16.0200004 C4.85812515,15.9375004 4.95375028,15.7781255 4.95375028,15.6037507 C4.95562516,15.4293753 4.86187491,15.2681255 4.71000003,15.1818753 C4.55812515,15.0956255 4.37250003,15.0993753 4.22250003,15.1893753 L2.62125025,16.1175004 C1.93875025,14.8537506 1.52625024,13.5281255 1.455,12.0000003 L3.36000002,12.0000003 C3.53250002,12.0018752 3.69375026,11.9118752 3.7818749,11.7618752 C3.86812515,11.6118752 3.86812515,11.4281254 3.7818749,11.2781254 C3.69375026,11.1281254 3.53250002,11.0381254 3.36000002,11.0400003 L1.455,11.0400003 C1.52062512,9.6487505 1.87312513,8.33625046 2.44500001,7.14937507 C2.71500001,7.29562531 3.14625026,7.52812532 4.11562515,8.05500021 C4.26750003,8.14125045 4.45312515,8.13937509 4.60312515,8.04937509 C4.75125027,7.95937509 4.84125027,7.79437509 4.83375027,7.62187508 C4.82812515,7.4475002 4.72875027,7.29000019 4.57312515,7.20937507 C3.60375026,6.68437505 3.1743749,6.45187505 2.90250002,6.30562528 C3.67125026,5.04000013 4.69875027,3.9525001 5.92687492,3.13312519 L6.91500005,4.77750012 C7.0012503,4.92562524 7.16250006,5.01750013 7.33500006,5.01562525 C7.50937494,5.01187501 7.66687494,4.91812524 7.7512503,4.76625036 C7.8337503,4.614375 7.82812518,4.42875035 7.73812518,4.28250011 L6.75000005,2.63812518 C8.03812518,1.94625028 9.4931252,1.52812515 11.0400001,1.45500003 L11.0400001,3.36000008 C11.0381252,3.53250009 11.1281252,3.69375033 11.2781252,3.78187497 C11.4281252,3.86812522 11.611875,3.86812522 11.761875,3.78187497 C11.911875,3.69375033 12.001875,3.53250009 12.0000001,3.36000008 L12.0000001,1.45500003 C13.3912504,1.52062515 14.7075001,1.86562516 15.894375,2.43750006 L14.9850001,4.11562522 C14.8987504,4.26750011 14.9006253,4.45312523 14.9906253,4.60312524 C15.0806253,4.75125036 15.2456253,4.84125036 15.4181253,4.83375036 C15.5925001,4.82812524 15.7500001,4.72875036 15.8306253,4.57312523 L16.7381253,2.89687495 C18.0037504,3.66375033 19.0875002,4.69875036 19.9068751,5.92687503 L18.2625002,6.91500018 C18.114375,7.00125042 18.0225002,7.16250019 18.024375,7.33500019 C18.0281253,7.50937508 18.121875,7.66687508 18.2737504,7.75125044 C18.4256253,7.83375045 18.6112504,7.82812533 18.7575002,7.73812532 L20.4018751,6.75000018 C21.0937504,8.03812533 21.5118751,9.49312537 21.5850002,11.0400003 L19.6800002,11.0400003 C19.5075002,11.0381254 19.3462504,11.1281254 19.2581253,11.2781254 C19.1718751,11.4281254 19.1718751,11.6118752 19.2581253,11.7618752 C19.3462504,11.9118752 19.5075002,12.0018752 19.6800002,12.0000003 L21.5850002,12.0000003 C21.5137504,13.5281255 21.1012504,14.8537506 20.4206253,16.1175004 L18.8175002,15.1893753 C18.6675002,15.0993753 18.481875,15.0956255 18.3300002,15.1818753 C18.1781253,15.2681255 18.084375,15.4293753 18.0862504,15.6037507 C18.0862504,15.7781255 18.181875,15.9375004 18.3356253,16.0200004 L20.1375002,17.0643753 L20.1600002,16.7700005 C20.1431253,16.9912507 20.2818751,17.1956256 20.4937504,17.2631256 C20.7056253,17.3306256 20.9362504,17.2443754 21.0506253,17.0550005 C22.0350002,15.4237507 22.5412504,13.6425004 22.5581253,11.6175003 C22.5693751,11.5537506 22.5693751,11.4881254 22.5581253,11.4262505 C22.5393751,9.40875049 21.9806253,7.51875044 21.0168751,5.89687503 C21.0037504,5.86125039 20.9850002,5.82937503 20.9625002,5.79750015 C20.9606253,5.79750015 20.9606253,5.79750015 20.9606253,5.79750015 C20.9606253,5.79562527 20.9587504,5.79562527 20.9568751,5.79375039 C19.9556253,4.1475001 18.5325002,2.7862503 16.8412504,1.85250004 C16.8000001,1.82062516 16.7550001,1.79812516 16.7081253,1.78125028 C15.1856253,0.967500014 13.4531252,0.498750241 11.611875,0.48375024 C11.5800001,0.47625024 11.5462503,0.4725 11.5125001,0.4725 Z M17.0681253,7.76625032 C16.9762505,7.76437496 16.8862505,7.78875032 16.8075002,7.83750008 L12.4350002,10.4212503 C12.1856253,10.2112503 11.8687504,10.08 11.5200002,10.08 C10.7306253,10.08 10.0800001,10.7306252 10.0800001,11.52 C10.0800001,12.3093749 10.7306253,12.96 11.5200002,12.96 C12.309375,12.96 12.9600002,12.3093749 12.9600002,11.52 C12.9600002,11.4262503 12.9487504,11.3325 12.9318751,11.2425 L17.2950002,8.66250006 C17.4825002,8.55562519 17.5743751,8.33625031 17.5218751,8.12812519 C17.4693751,7.92000008 17.2837505,7.77187496 17.0681253,7.76625032 Z M11.5200001,11.04 C11.671875,11.04 11.799375,11.1093749 11.8856253,11.2143749 C11.904375,11.265 11.9325001,11.31 11.9681253,11.3512502 C11.986875,11.4037502 12.0000001,11.46 12.0000001,11.52 C12.0000001,11.79 11.7900001,12 11.5200001,12 C11.2500001,12 11.0400001,11.79 11.0400001,11.52 C11.0400001,11.25 11.2500001,11.04 11.5200001,11.04 Z M8.64000019,15.3600003 C8.4675002,15.3581255 8.30625044,15.4481255 8.21812532,15.5981255 C8.13187508,15.7481255 8.13187508,15.9318752 8.21812532,16.0818752 C8.30625044,16.2318752 8.4675002,16.3218752 8.64000019,16.3200003 L14.4000001,16.3200003 C14.5725001,16.3218752 14.7337503,16.2318752 14.821875,16.0818752 C14.9081252,15.9318752 14.9081252,15.7481255 14.821875,15.5981255 C14.7337503,15.4481255 14.5725001,15.3581255 14.4000001,15.3600003 L8.64000019,15.3600003 Z"></path>
                        </g>
                    </g>
                </g>
            </g>
        </g>
    </g>
</svg>