<?xml version="1.0" encoding="UTF-8"?>
<svg width="20px" height="24px" viewBox="0 0 20 24" version="1.1" xmlns="http://www.w3.org/2000/svg" xmlns:xlink="http://www.w3.org/1999/xlink">
    <!-- Generator: sketchtool 52.6 (67491) - http://www.bohemiancoding.com/sketch -->
    <title>7B71643B-AA17-4B22-8B33-4D726176041C</title>
    <desc>Created with sketchtool.</desc>
    <g id="Page-1" stroke="none" stroke-width="1" fill="none" fill-rule="evenodd">
        <g id="Dashboard" transform="translate(-12.000000, -834.000000)" fill="#4D7CFE">
            <g id="Stacked-Group" transform="translate(10.000000, 217.000000)">
                <g id="Invoices" transform="translate(0.000000, 614.000000)">
                    <g id="icons8-bill-active" transform="translate(0.000000, 3.000000)">
                        <g id="icons8-bill" transform="translate(2.880000, 0.960000)">
                            <path d="M0,0 L0,22.08 L0.48,22.08 L18.24,22.08 L18.24,0 L0,0 Z M0.96,0.96 L17.28,0.96 L17.28,21.12 L0.96,21.12 L0.96,0.96 Z M3.36,4.32 L3.36,5.28 L14.88,5.28 L14.88,4.32 L3.36,4.32 Z M3.36,11.04 L3.36,12 L10.08,12 L10.08,11.04 L3.36,11.04 Z M12.48,11.04 L12.48,12 L14.88,12 L14.88,11.04 L12.48,11.04 Z M3.36,13.92 L3.36,14.88 L10.08,14.88 L10.08,13.92 L3.36,13.92 Z M12.48,13.92 L12.48,14.88 L14.88,14.88 L14.88,13.92 L12.48,13.92 Z M3.36,16.8 L3.36,17.76 L10.08,17.76 L10.08,16.8 L3.36,16.8 Z M12.48,16.8 L12.48,17.76 L14.88,17.76 L14.88,16.8 L12.48,16.8 Z" id="Shape" fill-rule="nonzero"></path>
                        </g>
                    </g>
                </g>
            </g>
        </g>
    </g>
</svg>