<?xml version="1.0" encoding="UTF-8"?>
<svg width="23px" height="22px" viewBox="0 0 23 22" version="1.1" xmlns="http://www.w3.org/2000/svg" xmlns:xlink="http://www.w3.org/1999/xlink">
    <!-- Generator: sketchtool 52.6 (67491) - http://www.bohemiancoding.com/sketch -->
    <title>30ABAF1E-74D3-4EE0-9B15-0137778080C4</title>
    <desc>Created with sketchtool.</desc>
    <g id="Page-1" stroke="none" stroke-width="1" fill="none" fill-rule="evenodd">
        <g id="Dashboard" transform="translate(-10.000000, -221.000000)" fill="#4D7CFE">
            <g id="Stacked-Group" transform="translate(10.000000, 217.000000)">
                <g id="Jobs">
                    <g id="icons8-business-active" transform="translate(0.000000, 4.000000)">
                        <g id="icons8-business" transform="translate(0.000000, 0.880000)">
                            <path d="M11.44,0 C10.3520314,0 9.37921864,0.32140636 8.6625,0.86625 C8.06609364,1.31828136 7.64671864,1.93703136 7.52125,2.64 L1.76,2.64 C1.03640636,2.64 0.44,3.23640636 0.44,3.96 L0.44,11.3575 C0.4365625,11.385 0.4365625,11.4125 0.44,11.44 L0.44,18.92 C0.44,19.6435936 1.03640636,20.24 1.76,20.24 L21.12,20.24 C21.8435936,20.24 22.44,19.6435936 22.44,18.92 L22.44,11.39875 C22.44,11.385 22.44,11.37125 22.44,11.3575 L22.44,3.96 C22.44,3.23640636 21.8435936,2.64 21.12,2.64 L15.35875,2.64 C15.2332814,1.93703136 14.8139064,1.31828136 14.2175,0.86625 C13.5007814,0.32140636 12.5279686,0 11.44,0 Z M11.44,0.88 C12.3560936,0.88 13.1398436,1.15671864 13.68125,1.5675 C14.0834377,1.87343772 14.3532814,2.234375 14.465,2.64 L8.415,2.64 C8.52671864,2.234375 8.79656272,1.87343772 9.19875,1.5675 C9.74015636,1.15671864 10.5239064,0.88 11.44,0.88 Z M1.76,3.52 L21.12,3.52 C21.3692186,3.52 21.56,3.71078136 21.56,3.96 L21.56,11.3575 C21.5582814,11.3764064 21.5582814,11.3935936 21.56,11.4125 L21.56,11.44 C21.56,11.6892186 21.3692186,11.88 21.12,11.88 L13.64,11.88 C13.64,11.1564064 13.0435936,10.56 12.32,10.56 L10.56,10.56 C9.83640636,10.56 9.24,11.1564064 9.24,11.88 L1.76,11.88 C1.51078136,11.88 1.32,11.6892186 1.32,11.44 C1.32343772,11.4125 1.32343772,11.385 1.32,11.3575 L1.32,3.96 C1.32,3.71078136 1.51078136,3.52 1.76,3.52 Z M10.56,11.44 L12.32,11.44 C12.5692186,11.44 12.76,11.6307814 12.76,11.88 L12.76,12.2375 C12.76,12.25125 12.76,12.265 12.76,12.27875 L12.76,12.32 C12.7565627,12.3526564 12.7565627,12.3835936 12.76,12.41625 L12.76,12.76 C12.76,13.0092186 12.5692186,13.2 12.32,13.2 L10.56,13.2 C10.3107814,13.2 10.12,13.0092186 10.12,12.76 L10.12,12.4025 C10.1320314,12.3440627 10.1320314,12.2821877 10.12,12.22375 L10.12,11.88 C10.12,11.6307814 10.3107814,11.44 10.56,11.44 Z M1.32,12.6775 C1.45921864,12.7273436 1.60531272,12.76 1.76,12.76 L9.24,12.76 C9.24,13.4835936 9.83640636,14.08 10.56,14.08 L12.32,14.08 C13.0435936,14.08 13.64,13.4835936 13.64,12.76 L21.12,12.76 C21.2746877,12.76 21.4207814,12.7273436 21.56,12.6775 L21.56,18.92 C21.56,19.1692186 21.3692186,19.36 21.12,19.36 L1.76,19.36 C1.51078136,19.36 1.32,19.1692186 1.32,18.92 L1.32,12.6775 Z" id="Shape" fill-rule="nonzero"></path>
                        </g>
                    </g>
                </g>
            </g>
        </g>
    </g>
</svg>