<?xml version="1.0" encoding="UTF-8"?>
<svg width="13px" height="12px" viewBox="0 0 13 12" version="1.1" xmlns="http://www.w3.org/2000/svg" xmlns:xlink="http://www.w3.org/1999/xlink">
    <!-- Generator: sketchtool 52.6 (67491) - http://www.bohemiancoding.com/sketch -->
    <title>B6C54C57-AFFA-4B70-83A5-EA6F0FD64CFF</title>
    <desc>Created with sketchtool.</desc>
    <g id="Page-1" stroke="none" stroke-width="1" fill="none" fill-rule="evenodd" opacity="0.699999988">
        <g id="Dashboard" transform="translate(-224.000000, -128.000000)" fill="#FFFFFF">
            <g id="Header-Tall">
                <g id="icons8-logout" transform="translate(224.000000, 128.000000)">
                    <g id="icons8-login">
                        <path d="M6.76,0 C4.34000268,0 2.2400054,1.3314286 1.2065625,3.27246095 C1.11288235,3.43229425 1.11775424,3.62862103 1.21925585,3.78397626 C1.32075746,3.9393315 1.50258747,4.02876488 1.69300087,4.01698853 C1.88341427,4.00521217 2.05183036,3.89411736 2.13179689,3.727539 C2.99323398,2.10957145 4.73607732,1 6.76,1 C9.63795768,1 11.96,3.2327332 11.96,6 C11.96,8.767267 9.63795768,11 6.76,11 C4.73607732,11 2.99323398,9.8904285 2.13179689,8.272461 C2.05183044,8.10588253 1.88341433,7.99478761 1.69300086,7.98301121 C1.50258739,7.9712348 1.3207573,8.06066822 1.21925568,8.21602352 C1.11775406,8.37137883 1.11288223,8.56770569 1.2065625,8.727539 C2.2400054,10.6685715 4.34000268,12 6.76,12 C10.2000423,12 13,9.307733 13,6 C13,2.6922668 10.2000423,0 6.76,0 Z M6.23492168,3.4951172 C6.02332178,3.4951708 5.83285326,3.61849511 5.75322991,3.80700237 C5.67360656,3.99550964 5.7207061,4.21160954 5.87234388,4.3535155 L7.06468776,5.5 L1.04,5.5 C0.852469323,5.49744986 0.67803769,5.59218765 0.583498385,5.74793642 C0.488959079,5.9036852 0.488959079,6.0963148 0.583498385,6.25206358 C0.67803769,6.40781235 0.852469323,6.50255014 1.04,6.5 L7.06468776,6.5 L5.87234388,7.6464845 C5.73649867,7.77189279 5.68177655,7.958118 5.7292821,8.13333903 C5.77678765,8.30856006 5.91909754,8.44539649 6.10132741,8.49107491 C6.28355728,8.53675332 6.4772315,8.4841359 6.60765612,8.3535155 L8.64195332,6.397461 C8.77109069,6.30273967 8.84678755,6.15544406 8.84658827,5.99926974 C8.846389,5.84309542 8.77031647,5.69597886 8.64093776,5.6015625 L6.60765612,3.6464845 C6.50975516,3.54971807 6.37532262,3.49512507 6.23492168,3.4951172 Z" id="Shape" fill-rule="nonzero"></path>
                    </g>
                </g>
            </g>
        </g>
    </g>
</svg>