<?xml version="1.0" encoding="UTF-8"?>
<svg width="20px" height="24px" viewBox="0 0 20 24" version="1.1" xmlns="http://www.w3.org/2000/svg" xmlns:xlink="http://www.w3.org/1999/xlink">
    <!-- Generator: sketchtool 52.6 (67491) - http://www.bohemiancoding.com/sketch -->
    <title>44696491-A844-40FC-993C-10C7E6331A2F</title>
    <desc>Created with sketchtool.</desc>
    <g id="Page-1" stroke="none" stroke-width="1" fill="none" fill-rule="evenodd">
        <g id="Dashboard" transform="translate(-339.000000, -20.000000)" fill="#FFFFFF" fill-rule="nonzero">
            <g id="Header-Tall">
                <g id="Notification" transform="translate(339.000000, 20.000000)">
                    <g id="icons8-notification">
                        <path d="M10,0 C8.95275286,0 8.0952381,0.86437488 8.0952381,1.92 C8.0952381,2.1675 8.14360143,2.4075 8.22916667,2.625 C5.55059524,3.32625024 3.80952381,5.67187488 3.80952381,8.64 C3.80952381,12.3993749 2.89434524,14.1112502 2.02380952,15.075 C1.5885419,15.5568749 1.15885429,15.8493749 0.788690476,16.125 C0.602678571,16.2618749 0.433407619,16.3987502 0.282738095,16.575 C0.132068571,16.7512502 0,17.0025 0,17.28 C0,17.94 0.401785714,18.5006251 0.967261905,18.87 C1.5327381,19.2393749 2.27492571,19.4775 3.16964286,19.665 C4.33035714,19.9068749 5.76264905,20.0343749 7.33630952,20.1 C7.2172619,20.4187502 7.14285714,20.7618749 7.14285714,21.12 C7.14285714,22.7043749 8.42819952,24 10,24 C11.5718005,24 12.8571429,22.7043749 12.8571429,21.12 C12.8571429,20.76 12.7845981,20.4168749 12.6636905,20.1 C14.2373514,20.0343749 15.6696429,19.9068749 16.8303571,19.665 C17.7250743,19.4775 18.4672619,19.2393749 19.0327381,18.87 C19.5982143,18.5006251 20,17.94 20,17.28 C20,17.0025 19.8679314,16.7512502 19.7172619,16.575 C19.5665924,16.3987502 19.3973214,16.2618749 19.2113095,16.125 C18.8411457,15.8493749 18.4114586,15.5568749 17.9761905,15.075 C17.1056548,14.1112502 16.1904762,12.3993749 16.1904762,8.64 C16.1904762,5.67375024 14.4456848,3.33 11.7708333,2.625 C11.856399,2.4075 11.9047619,2.1675 11.9047619,1.92 C11.9047619,0.86437488 11.0472471,0 10,0 Z M10,0.96 C10.5319943,0.96 10.952381,1.38375024 10.952381,1.92 C10.952381,2.45625024 10.5319943,2.88 10,2.88 C9.46800619,2.88 9.04761905,2.45625024 9.04761905,1.92 C9.04761905,1.38375024 9.46800619,0.96 10,0.96 Z M11.1160714,3.45 C13.6551338,3.90562512 15.2380952,5.88375024 15.2380952,8.64 C15.2380952,12.5606251 16.2276786,14.5743749 17.2619048,15.72 C17.7790181,16.2918749 18.3017114,16.65 18.6458333,16.905 C18.8169643,17.0325 18.9453124,17.1393749 19.0029762,17.205 C19.06064,17.2706251 19.047619,17.265 19.047619,17.28 C19.047619,17.58 18.9099705,17.7993749 18.5119048,18.06 C18.1138395,18.3206251 17.4665181,18.5625 16.6369048,18.735 C14.9776786,19.0818749 12.6153276,19.2 10,19.2 C7.38467286,19.2 5.02232143,19.0818749 3.36309524,18.735 C2.53348238,18.5625 1.88616095,18.3206251 1.48809524,18.06 C1.09003,17.7993749 0.952380952,17.58 0.952380952,17.28 C0.952380952,17.265 0.93936,17.2706251 0.99702381,17.205 C1.05468762,17.1393749 1.18303571,17.0325 1.35416667,16.905 C1.69828857,16.65 2.22098238,16.2918749 2.73809524,15.72 C3.77232143,14.5743749 4.76190476,12.5606251 4.76190476,8.64 C4.76190476,5.88562512 6.34672619,3.9225 8.88392857,3.465 C9.20014905,3.69937488 9.58147333,3.84 10,3.84 C10.4222471,3.84 10.7998514,3.68812512 11.1160714,3.45 Z M8.36309524,20.13 C8.89694952,20.1412502 9.44010429,20.16 10,20.16 C10.5598957,20.16 11.1030505,20.1412502 11.6369048,20.13 C11.8061757,20.4187502 11.9047619,20.76 11.9047619,21.12 C11.9047619,22.1868749 11.0584076,23.04 10,23.04 C8.94159238,23.04 8.0952381,22.1868749 8.0952381,21.12 C8.0952381,20.7562502 8.19010429,20.4187502 8.36309524,20.13 Z" id="Shape"></path>
                    </g>
                </g>
            </g>
        </g>
    </g>
</svg>