<?xml version="1.0" encoding="UTF-8"?>
<svg width="24px" height="24px" viewBox="0 0 24 24" version="1.1" xmlns="http://www.w3.org/2000/svg" xmlns:xlink="http://www.w3.org/1999/xlink">
    <!-- Generator: sketchtool 52.6 (67491) - http://www.bohemiancoding.com/sketch -->
    <title>A9AA970B-73F1-475E-874A-9D47F1AD22DA</title>
    <desc>Created with sketchtool.</desc>
    <g id="Page-1" stroke="none" stroke-width="1" fill="none" fill-rule="evenodd">
        <g id="Jemsub-/-Dashboard-1" transform="translate(-315.000000, -740.000000)" fill="#98A9BC">
            <g id="App/Navigation" transform="translate(0.000000, 728.000000)">
                <g id="Navigation/App-bar---Active-item-05" transform="translate(292.000000, 1.000000)">
                    <g id="icons8-settings-inactive" transform="translate(23.000000, 11.000000)">
                        <g id="icons8-settings" transform="translate(0.960000, 0.960000)">
                            <path d="M9.69843744,1.06581415e-16 C9.46346143,0.000124459841 9.26311148,0.170322754 9.225,0.402187488 L8.75812512,3.26062502 C8.19672432,3.42393461 7.66139664,3.64429094 7.15687488,3.91874976 L4.79812512,2.23406251 C4.607432,2.09789297 4.34629445,2.11929117 4.18031232,2.28468749 L2.31281251,4.15031232 C2.14807705,4.31516309 2.12554156,4.57451881 2.25937498,4.76531232 L3.91874976,7.13906256 C3.64005792,7.64653008 3.4148207,8.18487552 3.2475,8.75156256 L0.40125,9.225 C0.170130443,9.26392949 0.000909294563,9.4640622 0.000937488,9.69843744 L0.000937488,12.3384374 C0.000514907359,12.5713227 0.167306445,12.7709192 0.396562512,12.8118749 L3.24468749,13.3162502 C3.41110114,13.8819547 3.63490685,14.4206712 3.91406256,14.9287498 L2.23406251,17.2790626 C2.09789324,17.4697556 2.11929143,17.7308928 2.28468749,17.8968749 L4.15125024,19.7643749 C4.31572376,19.9288938 4.57448856,19.9518073 4.76531232,19.8187498 L7.14374976,18.1537498 C7.64975952,18.4298304 8.18639712,18.6518054 8.74968768,18.8165626 L9.225,21.6787498 C9.26352092,21.910242 9.46376208,22.0799515 9.69843744,22.08 L12.3384374,22.08 C12.5716193,22.0803423 12.7713223,21.9130663 12.8118749,21.6834374 L13.3209374,18.81 C13.8819038,18.6427186 14.4160186,18.4174546 14.9193749,18.1396877 L17.3137498,19.8196877 C17.5045432,19.9535211 17.763899,19.9309857 17.9287498,19.7662502 L19.7953123,17.8978123 C19.9614522,17.7313167 19.982488,17.4689662 19.845,17.2781251 L18.1378123,14.9081251 C18.4107758,14.4071798 18.6306792,13.87626 18.7940626,13.3190626 L21.6825,12.8128123 C21.9121288,12.7722597 22.0794048,12.5725568 22.0790626,12.3393749 L22.0790626,9.69937488 C22.0789381,9.46439881 21.9087397,9.26404883 21.6768749,9.22593744 L18.7931251,8.75437488 C18.6286464,8.19783696 18.4081349,7.66786704 18.135,7.16718768 L19.8187498,4.76812512 C19.9525832,4.57733163 19.9300477,4.31797592 19.7653123,4.15312512 L17.8978123,2.28656251 C17.7313167,2.12042263 17.4689661,2.09938693 17.2781251,2.23687498 L14.9146877,3.93656256 C14.4111293,3.65990885 13.8766622,3.43583597 13.3143749,3.27 L12.8118749,0.3975 C12.7717264,0.16749846 12.5719166,-0.000262652716 12.3384374,1.06581415e-16 L9.69843744,1.06581415e-16 Z M10.1071877,0.96 L11.9353123,0.96 L12.4134374,3.68906251 C12.4459416,3.87606425 12.5855767,4.02635562 12.7696877,4.0725 C13.4716925,4.24743936 14.1310114,4.52474352 14.7328123,4.88906256 C14.8972836,4.98871622 15.1053536,4.98059997 15.2615626,4.86843744 L17.5078123,3.25406251 L18.8006251,4.54687488 L17.2012502,6.82593744 C17.0921146,6.9812662 17.084765,7.18631899 17.1825,7.34906256 C17.5432157,7.94950608 17.8167998,8.60466192 17.9915626,9.30281232 C18.0380759,9.48865392 18.1906306,9.62904848 18.3796877,9.66 L21.1190626,10.1081251 L21.1190626,11.9362502 L18.3740626,12.4181251 C18.1869098,12.4512539 18.0369252,12.5916807 17.9915626,12.7762502 C17.8188216,13.4735122 17.5450723,14.1286498 17.1843749,14.7290626 C17.0854113,14.8934931 17.0938912,15.1010647 17.2059374,15.2568749 L18.8278123,17.5078123 L17.535,18.8015626 L15.2596877,17.205 C15.1035593,17.0956392 14.8975168,17.0890165 14.7346877,17.1881251 C14.13588,17.5524408 13.4758824,17.8310534 12.7762502,18.0084374 C12.5930451,18.0546209 12.4539677,18.203973 12.4209374,18.39 L11.9362502,21.12 L10.1053123,21.12 L9.65343744,18.4021877 C9.62200245,18.2132338 9.4812446,18.0610532 9.29531232,18.015 C8.592888,17.8418674 7.93060512,17.5649808 7.32468768,17.2012502 C7.16217183,17.1039231 6.95761705,17.1112679 6.8025,17.22 L4.545,18.8015626 L3.25125,17.5059374 L4.84687488,15.2756251 C4.95833525,15.1194342 4.96607739,14.9118728 4.86656256,14.7478123 C4.49887296,14.1402504 4.22079312,13.4780222 4.04531232,12.7725 C3.999448,12.5889304 3.85003123,12.4494259 3.66375,12.4162502 L0.960937488,11.9362502 L0.960937488,10.1053123 L3.66187498,9.65625024 C3.85057226,9.6249575 4.00268618,9.48462961 4.04906256,9.29906256 C4.22605104,8.59110864 4.503996,7.92898992 4.87031232,7.32281232 C4.9690111,7.16020916 4.9623926,6.95466643 4.85343744,6.79874976 L3.27656251,4.545 L4.57125024,3.25125 L6.80906256,4.85062512 C6.96464529,4.96156264 7.1712074,4.96966316 7.335,4.87125024 C7.93771584,4.50926064 8.60153616,4.23459888 9.30468768,4.06218768 C9.4915351,4.01618646 9.63285774,3.86305594 9.66374976,3.67312502 L10.1071877,0.96 Z M11.04,7.2 C8.92491216,7.2 7.2,8.92491216 7.2,11.04 C7.2,13.1550878 8.92491216,14.88 11.04,14.88 C13.1550878,14.88 14.88,13.1550878 14.88,11.04 C14.88,8.92491216 13.1550878,7.2 11.04,7.2 Z M11.04,8.16 C12.6362654,8.16 13.92,9.44373456 13.92,11.04 C13.92,12.6362654 12.6362654,13.92 11.04,13.92 C9.44373456,13.92 8.16,12.6362654 8.16,11.04 C8.16,9.44373456 9.44373456,8.16 11.04,8.16 Z" id="Shape" fill-rule="nonzero"></path>
                        </g>
                    </g>
                </g>
            </g>
        </g>
    </g>
</svg>