<?xml version="1.0" encoding="UTF-8"?>
<svg width="22px" height="22px" viewBox="0 0 22 22" version="1.1" xmlns="http://www.w3.org/2000/svg" xmlns:xlink="http://www.w3.org/1999/xlink">
    <!-- Generator: sketchtool 52.6 (67491) - http://www.bohemiancoding.com/sketch -->
    <title>1BDEB8AE-8A27-4722-AFA9-A2CB7962E825</title>
    <desc>Created with sketchtool.</desc>
    <g id="Page-1" stroke="none" stroke-width="1" fill="none" fill-rule="evenodd">
        <g id="Dashboard" transform="translate(-11.000000, -558.000000)" fill="#5682FD">
            <g id="Stacked-Group" transform="translate(10.000000, 217.000000)">
                <g id="Tasks" transform="translate(0.000000, 337.000000)">
                    <g id="icons8-checked-checkbox" transform="translate(0.000000, 3.000000)">
                        <g transform="translate(1.920000, 1.920000)" id="Shape">
                            <path d="M3.36,0 C1.50937488,0 0,1.50937488 0,3.36 L0,16.8 C0,18.6506251 1.50937488,20.16 3.36,20.16 L16.8,20.16 C18.6506251,20.16 20.16,18.6506251 20.16,16.8 L20.16,3.36 C20.16,1.50937488 18.6506251,0 16.8,0 L3.36,0 Z M3.36,0.96 L16.8,0.96 C18.1312502,0.96 19.2,2.02875024 19.2,3.36 L19.2,16.8 C19.2,18.1312502 18.1312502,19.2 16.8,19.2 L3.36,19.2 C2.02875024,19.2 0.96,18.1312502 0.96,16.8 L0.96,3.36 C0.96,2.02875024 2.02875024,0.96 3.36,0.96 Z M15.4725,5.67937488 L9.07875024,13.2262502 L5.175,9.585 L4.52062512,10.2881251 L9.15937488,14.6156251 L16.2075,6.3 L15.4725,5.67937488 Z" fill-rule="nonzero"></path>
                        </g>
                    </g>
                </g>
            </g>
        </g>
    </g>
</svg>